<svg width="1400" height="980" xmlns="http://www.w3.org/2000/svg" xmlns:xlink="http://www.w3.org/1999/xlink">
 <g>
  <title>background</title>
  <rect fill="none" id="canvas_background" height="402" width="582" y="-1" x="-1"/>
 </g>
 <g>
  <title>Layer 1</title>
  <g id="svg_1">
   <rect id="svg_2" height="980" width="1400" fill="url(#SVGID_1_)"/>
   <g id="svg_3">
    <path id="svg_4" d="m301.6,279.8l0,-50.6l13.4,0c5,0 8.3,0.2 9.8,0.7c2.5,0.8 4.5,2.4 6.1,5s2.4,5.8 2.4,9.9c0,3.7 -0.7,6.7 -2.1,9.2c-1.4,2.5 -3.1,4.2 -5.2,5.2c-2.1,1 -5.6,1.5 -10.7,1.5l-5.5,0l0,19.1l-8.2,0zm8.3,-42.1l0,14.4l4.6,0c3.1,0 5.2,-0.2 6.3,-0.7c1.1,-0.4 2,-1.2 2.7,-2.4c0.7,-1.1 1.1,-2.5 1.1,-4.2c0,-1.7 -0.4,-3.1 -1.1,-4.3c-0.7,-1.2 -1.6,-1.9 -2.7,-2.3c-1.1,-0.4 -3.4,-0.6 -6.9,-0.6l-4,0l0,0.1z" fill="#D1D3D4"/>
    <path id="svg_5" d="m340.2,279.8l0,-50.6l17.6,0c4.5,0 7.7,0.5 9.7,1.4s3.5,2.5 4.8,4.7c1.2,2.2 1.9,4.9 1.9,8.1c0,4 -0.9,7.1 -2.8,9.6s-4.6,3.9 -8.1,4.6c1.8,1.3 3.3,2.7 4.4,4.2c1.2,1.5 2.8,4.3 4.8,8.2l5,9.9l-10,0l-6.1,-11c-2.2,-4 -3.7,-6.5 -4.4,-7.5c-0.8,-1 -1.6,-1.7 -2.5,-2.1c-0.9,-0.4 -2.3,-0.6 -4.2,-0.6l-1.7,0l0,21.1l-8.4,0zm8.4,-29.2l6.2,0c3.8,0 6.2,-0.2 7.2,-0.5s1.9,-1 2.5,-2c0.6,-1 1,-2.4 1,-4c0,-1.6 -0.3,-2.9 -1,-3.9c-0.6,-1 -1.5,-1.6 -2.6,-2c-0.8,-0.3 -3,-0.4 -6.8,-0.4l-6.6,0l0,12.8l0.1,0z" fill="#D1D3D4"/>
    <path id="svg_6" d="m381.8,279.8l0,-50.6l8.3,0l0,50.6l-8.3,0z" fill="#D1D3D4"/>
    <path id="svg_7" d="m396,263.3l8.2,-1c0.9,6.5 3.9,9.7 9,9.7c2.5,0 4.5,-0.7 6,-2c1.4,-1.3 2.2,-3 2.2,-4.9c0,-1.1 -0.3,-2.1 -0.8,-2.9c-0.5,-0.8 -1.3,-1.5 -2.3,-2c-1,-0.5 -3.5,-1.4 -7.5,-2.6c-3.6,-1.1 -6.2,-2.2 -7.8,-3.5c-1.7,-1.3 -3,-2.9 -3.9,-5c-1,-2.1 -1.5,-4.3 -1.5,-6.6c0,-2.8 0.6,-5.2 1.9,-7.4c1.3,-2.2 3,-3.9 5.2,-5c2.2,-1.1 4.9,-1.7 8.2,-1.7c4.9,0 8.7,1.3 11.4,4c2.7,2.6 4.2,6.4 4.3,11.3l-8.4,0.4c-0.4,-2.7 -1.2,-4.6 -2.4,-5.7c-1.2,-1.1 -3,-1.6 -5.2,-1.6c-2.3,0 -4,0.5 -5.2,1.4c-1.2,0.9 -1.8,2.1 -1.8,3.5c0,1.4 0.6,2.5 1.7,3.5c1.1,0.9 3.6,2 7.6,3.1c4.2,1.2 7.2,2.5 9.1,3.8c1.9,1.3 3.3,3.1 4.3,5.2c1,2.1 1.5,4.7 1.5,7.7c0,4.4 -1.4,8.1 -4.1,11.1c-2.7,3 -6.9,4.5 -12.7,4.5c-10.2,0 -15.8,-5.8 -17,-17.3z" fill="#D1D3D4"/>
    <path id="svg_8" d="m436.6,279.8l0,-50.6l12.5,0l7.5,34.5l7.5,-34.5l12.6,0l0,50.6l-7.7,0l0,-39.8l-8.3,39.8l-8.1,0l-8.2,-39.8l0,39.8l-7.8,0z" fill="#D1D3D4"/>
    <path id="svg_9" d="m301.6,289.4l4.4,0c1.2,0 2,0.1 2.5,0.3c0.5,0.2 0.9,0.6 1.2,1.2c0.3,0.5 0.5,1.2 0.5,1.9c0,0.6 -0.1,1.2 -0.4,1.7c-0.3,0.5 -0.7,0.9 -1.1,1.1c0.6,0.2 1.2,0.6 1.5,1.2c0.4,0.6 0.5,1.2 0.5,2c0,1 -0.2,1.8 -0.7,2.4c-0.5,0.7 -1,1.1 -1.6,1.2c-0.4,0.1 -1.5,0.2 -3.1,0.2l-3.7,0l0,-13.2zm2.2,2.2l0,3.1l1.4,0c0.9,0 1.4,0 1.6,0c0.4,-0.1 0.7,-0.2 0.9,-0.5c0.2,-0.3 0.3,-0.6 0.3,-1c0,-0.4 -0.1,-0.7 -0.3,-1c-0.2,-0.2 -0.4,-0.4 -0.6,-0.5c-0.2,-0.1 -0.9,-0.1 -2.1,-0.1l-1.2,0zm0,5.3l0,3.5l2,0c0.9,0 1.5,0 1.7,-0.1c0.3,-0.1 0.5,-0.3 0.6,-0.6c0.2,-0.3 0.3,-0.6 0.3,-1c0,-0.4 -0.1,-0.8 -0.3,-1.1c-0.2,-0.3 -0.4,-0.5 -0.7,-0.6c-0.3,-0.1 -0.9,-0.2 -1.9,-0.2l-1.7,0l0,0.1z" fill="#D1D3D4"/>
    <path id="svg_10" d="m322.4,302.6l-2.4,0l-1,-3l-4.4,0l-0.9,3l-2.3,0l4.2,-13.3l2.3,0l4.5,13.3zm-4.1,-5.2l-1.5,-4.9l-1.5,4.9l3,0z" fill="#D1D3D4"/>
    <path id="svg_11" d="m330.5,297.8l2.1,0.8c-0.3,1.5 -0.9,2.6 -1.7,3.3c-0.8,0.7 -1.7,1 -2.9,1c-1.4,0 -2.6,-0.5 -3.4,-1.6c-1,-1.3 -1.5,-3 -1.5,-5.1c0,-2.3 0.5,-4 1.5,-5.3c0.9,-1.1 2.1,-1.7 3.6,-1.7c1.2,0 2.2,0.4 3.1,1.2c0.6,0.6 1,1.5 1.3,2.6l-2.2,0.6c-0.1,-0.7 -0.4,-1.3 -0.8,-1.7s-0.9,-0.6 -1.5,-0.6c-0.8,0 -1.5,0.4 -2,1.1s-0.8,1.9 -0.8,3.5c0,1.7 0.2,2.9 0.7,3.6c0.5,0.7 1.1,1.1 1.9,1.1c0.6,0 1.1,-0.2 1.5,-0.7s0.9,-1.2 1.1,-2.1z" fill="#D1D3D4"/>
    <path id="svg_12" d="m334.5,302.6l0,-13.3l2.2,0l0,5.9l4.4,-5.9l3,0l-4.1,5.2l4.3,8.1l-2.8,0l-3,-6.2l-1.8,2.2l0,4l-2.2,0z" fill="#D1D3D4"/>
    <path id="svg_13" d="m350.5,297.8l0,-2.2l4.7,0l0,5.3c-0.5,0.6 -1.2,1 -2,1.4c-0.9,0.4 -1.8,0.6 -2.6,0.6c-1.1,0 -2,-0.3 -2.8,-0.8c-0.8,-0.5 -1.5,-1.3 -2,-2.4s-0.7,-2.3 -0.7,-3.7c0,-1.5 0.2,-2.7 0.7,-3.7c0.5,-1 1.1,-1.8 1.9,-2.3c0.8,-0.5 1.7,-0.8 2.8,-0.8c1.3,0 2.3,0.3 3.1,1c0.8,0.7 1.3,1.6 1.5,2.9l-2.2,0.5c-0.2,-0.7 -0.5,-1.2 -0.9,-1.6c-0.4,-0.4 -1,-0.5 -1.6,-0.5c-0.9,0 -1.7,0.4 -2.3,1.1s-0.9,1.8 -0.9,3.3c0,1.6 0.3,2.8 0.9,3.6c0.5,0.7 1.3,1.1 2.2,1.1c0.4,0 0.9,-0.1 1.3,-0.3c0.5,-0.2 0.9,-0.5 1.2,-0.8l0,-1.7l-2.3,0z" fill="#D1D3D4"/>
    <path id="svg_14" d="m357.3,302.6l0,-13.3l4.6,0c1.2,0 2,0.1 2.5,0.4c0.5,0.2 0.9,0.7 1.2,1.2c0.3,0.6 0.5,1.3 0.5,2.1c0,1 -0.2,1.9 -0.7,2.5c-0.5,0.6 -1.2,1 -2.1,1.2c0.5,0.3 0.9,0.7 1.2,1.1c0.3,0.4 0.7,1.1 1.3,2.2l1.3,2.6l-2.6,0l-1.6,-2.9c-0.6,-1 -1,-1.7 -1.2,-2c-0.2,-0.3 -0.4,-0.4 -0.7,-0.5c-0.2,-0.1 -0.6,-0.1 -1.1,-0.1l-0.5,0l0,5.5l-2.1,0zm2.2,-7.6l1.6,0c1,0 1.6,0 1.9,-0.1c0.3,-0.1 0.5,-0.3 0.7,-0.5c0.2,-0.3 0.3,-0.6 0.3,-1.1c0,-0.4 -0.1,-0.8 -0.3,-1c-0.2,-0.3 -0.4,-0.4 -0.7,-0.5c-0.2,-0.1 -0.8,-0.1 -1.8,-0.1l-1.7,0l0,3.3z" fill="#D1D3D4"/>
    <path id="svg_15" d="m367.8,296.1c0,-1.6 0.2,-2.9 0.7,-3.9c0.5,-1 1.1,-1.8 1.8,-2.3c0.8,-0.5 1.7,-0.8 2.7,-0.8c1.6,0 2.8,0.6 3.8,1.8s1.5,2.9 1.5,5.1c0,2.2 -0.5,4 -1.6,5.2c-0.9,1.1 -2.1,1.7 -3.7,1.7c-1.6,0 -2.8,-0.5 -3.7,-1.6c-0.9,-1.3 -1.5,-3 -1.5,-5.2zm2.3,-0.1c0,1.5 0.3,2.7 0.9,3.4c0.6,0.8 1.3,1.1 2.2,1.1c0.9,0 1.6,-0.4 2.1,-1.1c0.6,-0.8 0.9,-1.9 0.9,-3.5c0,-1.5 -0.3,-2.7 -0.8,-3.4c-0.6,-0.7 -1.3,-1.1 -2.2,-1.1c-0.9,0 -1.6,0.4 -2.2,1.1c-0.6,0.8 -0.9,1.9 -0.9,3.5z" fill="#D1D3D4"/>
    <path id="svg_16" d="m380.1,289.4l2.2,0l0,7.2c0,1.1 0,1.8 0.1,2.2c0.1,0.6 0.3,1 0.7,1.4c0.4,0.3 0.8,0.5 1.4,0.5c0.5,0 0.9,-0.1 1.2,-0.3c0.3,-0.2 0.5,-0.5 0.7,-0.9c0.1,-0.4 0.2,-1.3 0.2,-2.6l0,-7.3l2.2,0l0,7c0,1.8 -0.1,3.1 -0.3,3.9c-0.2,0.8 -0.6,1.4 -1.3,1.9c-0.7,0.5 -1.5,0.7 -2.6,0.7c-1.1,0 -2,-0.2 -2.7,-0.6c-0.6,-0.4 -1.1,-1 -1.4,-1.7s-0.4,-2.1 -0.4,-4.1l0,-7.3z" fill="#D1D3D4"/>
    <path id="svg_17" d="m391.1,302.6l0,-13.3l2.1,0l4.5,8.9l0,-8.9l2,0l0,13.3l-2.2,0l-4.4,-8.7l0,8.7l-2,0z" fill="#D1D3D4"/>
    <path id="svg_18" d="m402.1,289.4l4,0c1,0 1.8,0.1 2.3,0.3c0.5,0.2 1,0.6 1.4,1.1c0.4,0.5 0.8,1.2 1,2.1c0.2,0.9 0.4,1.9 0.4,3.2c0,1.1 -0.1,2.1 -0.4,3c-0.3,0.8 -0.6,1.5 -1,2c-0.4,0.5 -0.9,0.9 -1.4,1.1s-1.3,0.4 -2.2,0.4l-4.1,0l0,-13.2zm2.1,2.2l0,8.8l1.6,0c0.7,0 1.2,-0.1 1.5,-0.2c0.3,-0.1 0.6,-0.3 0.8,-0.6c0.2,-0.3 0.4,-0.7 0.5,-1.3c0.1,-0.6 0.2,-1.3 0.2,-2.3c0,-1 -0.1,-1.8 -0.2,-2.3c-0.1,-0.6 -0.3,-1 -0.6,-1.3c-0.3,-0.3 -0.6,-0.5 -1,-0.6c-0.3,-0.1 -0.9,-0.1 -1.8,-0.1l-1,0l0,-0.1z" fill="#D1D3D4"/>
    <path id="svg_19" d="m420.1,302.6l-3.9,-13.3l2.4,0l2.8,9.8l2.7,-9.8l2.3,0l-3.9,13.3l-2.4,0z" fill="#D1D3D4"/>
    <path id="svg_20" d="m427.4,302.6l0,-13.3l8.1,0l0,2.2l-5.9,0l0,2.9l5.5,0l0,2.2l-5.5,0l0,3.6l6.1,0l0,2.2l-8.3,0l0,0.2z" fill="#D1D3D4"/>
    <path id="svg_21" d="m444.5,297.8l2.1,0.8c-0.3,1.5 -0.9,2.6 -1.7,3.3c-0.8,0.7 -1.7,1 -2.9,1c-1.4,0 -2.6,-0.5 -3.5,-1.6c-1,-1.3 -1.5,-3 -1.5,-5.1c0,-2.3 0.5,-4 1.5,-5.3c0.9,-1.1 2.1,-1.7 3.6,-1.7c1.2,0 2.2,0.4 3.1,1.2c0.6,0.6 1,1.5 1.3,2.6l-2.2,0.6c-0.1,-0.7 -0.4,-1.3 -0.8,-1.7s-0.9,-0.6 -1.5,-0.6c-0.8,0 -1.5,0.4 -2,1.1s-0.8,1.9 -0.8,3.5c0,1.7 0.2,2.9 0.7,3.6c0.5,0.7 1.1,1.1 1.9,1.1c0.6,0 1.1,-0.2 1.5,-0.7s1,-1.2 1.2,-2.1z" fill="#D1D3D4"/>
    <path id="svg_22" d="m451,302.6l0,-11l-3.2,0l0,-2.2l8.6,0l0,2.2l-3.2,0l0,11l-2.2,0z" fill="#D1D3D4"/>
    <path id="svg_23" d="m457.1,296.1c0,-1.6 0.2,-2.9 0.7,-3.9c0.5,-1 1.1,-1.8 1.8,-2.3c0.8,-0.5 1.7,-0.8 2.7,-0.8c1.6,0 2.8,0.6 3.8,1.8c1,1.2 1.5,2.9 1.5,5.1c0,2.2 -0.5,4 -1.6,5.2c-0.9,1.1 -2.1,1.7 -3.7,1.7c-1.6,0 -2.8,-0.5 -3.7,-1.6c-1,-1.3 -1.5,-3 -1.5,-5.2zm2.3,-0.1c0,1.5 0.3,2.7 0.9,3.4c0.6,0.8 1.3,1.1 2.2,1.1c0.9,0 1.6,-0.4 2.1,-1.1c0.6,-0.8 0.9,-1.9 0.9,-3.5c0,-1.5 -0.3,-2.7 -0.8,-3.4c-0.6,-0.7 -1.3,-1.1 -2.2,-1.1c-0.9,0 -1.6,0.4 -2.2,1.1s-0.9,1.9 -0.9,3.5z" fill="#D1D3D4"/>
    <path id="svg_24" d="m469.4,302.6l0,-13.3l4.6,0c1.2,0 2,0.1 2.5,0.4s0.9,0.7 1.2,1.2c0.3,0.6 0.5,1.3 0.5,2.1c0,1 -0.2,1.9 -0.7,2.5c-0.5,0.6 -1.2,1 -2.1,1.2c0.5,0.3 0.9,0.7 1.2,1.1c0.3,0.4 0.7,1.1 1.3,2.2l1.3,2.6l-2.6,0l-1.6,-2.9c-0.6,-1 -1,-1.7 -1.2,-2c-0.2,-0.3 -0.4,-0.4 -0.7,-0.5s-0.6,-0.1 -1.1,-0.1l-0.5,0l0,5.5l-2.1,0zm2.2,-7.6l1.6,0c1,0 1.6,0 1.9,-0.1c0.3,-0.1 0.5,-0.3 0.7,-0.5c0.2,-0.3 0.3,-0.6 0.3,-1.1c0,-0.4 -0.1,-0.8 -0.3,-1s-0.4,-0.4 -0.7,-0.5c-0.2,-0.1 -0.8,-0.1 -1.8,-0.1l-1.7,0l0,3.3z" fill="#D1D3D4"/>
   </g>
   <g id="svg_25">
    <defs>
     <rect height="980" width="1400" id="SVGID_2_"/>
     <radialGradient gradientUnits="userSpaceOnUse" r="1242.2935" cy="326" cx="432" id="SVGID_1_">
      <stop stop-color="#FFFFFF" offset="0.066007"/>
      <stop stop-color="#F8F8F8" offset="0.3427"/>
      <stop stop-color="#E3E4E5" offset="0.7556"/>
      <stop stop-color="#D4D5D7" offset="1"/>
     </radialGradient>
    </defs>
    <clipPath id="SVGID_3_">
     <use id="svg_26" xlink:href="#SVGID_2_"/>
    </clipPath>
    <g id="svg_27" clip-path="url(#SVGID_3_)">
     <g id="svg_28" opacity="0.17">
      <polygon id="svg_29" points="1412.4,872.8 1389.1,953.5 1412.4,963.1     " fill="#7D2676"/>
      <polygon id="svg_30" points="1412.4,81.2 1332.4,147.8 1412.4,189.4     " fill="#BC74A2"/>
      <polygon id="svg_31" points="1412.4,48.8 1320.4,79 1332.4,147.8 1412.4,81.2     " fill="#C178A7"/>
      <polygon id="svg_32" points="1412.4,463.9 1388.4,540.8 1412.4,539.5     " fill="#B5408E"/>
      <polygon id="svg_33" points="1412.4,992.5 1412.4,963.1 1389.1,953.5 1389.3,992.5     " fill="#712674"/>
      <polygon id="svg_34" points="1412.4,258.4 1335.5,318.6 1412.4,391.2     " fill="#BC5F97"/>
      <polygon id="svg_35" points="1412.4,617.1 1326.4,635.3 1412.4,704.5     " fill="#AB2187"/>
      <polygon id="svg_36" points="1412.4,539.5 1388.4,540.8 1412.4,558.8     " fill="#AF338B"/>
      <polygon id="svg_37" points="1412.4,-12.9 1358,-12.9 1320.4,79 1412.4,48.8     " fill="#C07EAC"/>
      <polygon id="svg_38" points="1412.4,558.8 1388.4,540.8 1326.4,635.3 1412.4,617.1     " fill="#B32E8B"/>
      <polygon id="svg_39" points="1412.4,826.9 1348.3,775.1 1373.3,837.1 1412.4,835.9     " fill="#97247D"/>
      <polygon id="svg_40" points="1412.4,835.9 1373.3,837.1 1389.1,953.5 1412.4,872.8     " fill="#8A267A"/>
      <polygon id="svg_41" points="1412.4,408.3 1328.7,410.8 1388.4,540.8 1412.4,463.9     " fill="#BB4992"/>
      <polygon id="svg_42" points="1412.4,743.8 1348.3,775.1 1412.4,826.9     " fill="#99247F"/>
      <polygon id="svg_43" points="1412.4,704.5 1326.4,635.3 1348.3,775.1 1412.4,743.8     " fill="#A82285"/>
      <polygon id="svg_44" points="1412.4,189.4 1332.4,147.8 1412.4,239.2     " fill="#BD6E9D"/>
      <polygon id="svg_45" points="1412.4,391.2 1335.5,318.6 1328.7,410.8 1412.4,408.3     " fill="#C05896"/>
      <polygon id="svg_46" points="1412.4,239.2 1332.4,147.8 1335.5,318.6 1412.4,258.4     " fill="#C26B9C"/>
      <path id="svg_47" d="m1265.2,171.2l-14.4,103.5l81.6,-127l-67.2,23.5z" fill="#CC739E"/>
      <path id="svg_48" d="m1332.4,147.8l-81.6,127l84.6,43.8l-3,-170.8z" fill="#C86B9C"/>
      <path id="svg_49" d="m1326.4,635.3l-60.5,83.9l82.4,55.9l-21.9,-139.8z" fill="#B02085"/>
      <path id="svg_50" d="m1256.9,822.7l-11.3,154.2l127.7,-139.8l-116.4,-14.4z" fill="#96247C"/>
      <polygon id="svg_51" points="1270.8,-12.9 1320.4,79 1358,-12.9     " fill="#C983AF"/>
      <path id="svg_52" d="m1328.7,410.8l-77.8,135.3l137.6,-5.3l-59.8,-130z" fill="#C24190"/>
      <path id="svg_53" d="m1250.8,546.1l75.6,89.2l62,-94.5l-137.6,5.3z" fill="#BC348D"/>
      <path id="svg_54" d="m1373.3,837.1l-127.7,139.8l143.6,-23.4l-15.9,-116.4z" fill="#89267A"/>
      <polygon id="svg_55" points="1389.3,992.5 1389.1,953.5 1245.5,976.9 1265.3,992.5     " fill="#7B2676"/>
      <polygon id="svg_56" points="1265.3,992.5 1245.5,976.9 1241.4,992.5     " fill="#792675"/>
      <path id="svg_57" d="m1348.3,775.1l-91.4,47.6l116.4,14.4l-25,-62z" fill="#9D237E"/>
      <path id="svg_58" d="m1217.6,382.9l111.1,28l6.8,-92.2l-117.9,64.2z" fill="#C85B98"/>
      <path id="svg_59" d="m1265.9,719.2l-9.1,103.5l91.4,-47.6l-82.3,-55.9z" fill="#A72282"/>
      <polygon id="svg_60" points="1231.2,-12.9 1203.2,29.1 1320.4,79 1270.8,-12.9     " fill="#D083AE"/>
      <path id="svg_61" d="m1241.8,652.7l24.2,66.5l60.5,-83.9l-84.7,17.4z" fill="#BB1F89"/>
      <path id="svg_62" d="m1250.8,546.1l-9.1,106.6l84.6,-17.4l-75.5,-89.2z" fill="#C12D8B"/>
      <path id="svg_63" d="m1217.6,382.9l33.3,163.2l77.8,-135.3l-111.1,-27.9z" fill="#C94E93"/>
      <path id="svg_64" d="m1320.4,79l-55.2,92.2l67.3,-23.4l-12.1,-68.8z" fill="#C977A3"/>
      <path id="svg_65" d="m1208.5,258.1l-33.3,108.1l117.9,-64.2l-84.6,-43.9z" fill="#CC639A"/>
      <path id="svg_66" d="m1203.2,29.1l62,142.1l55.2,-92.2l-117.2,-49.9z" fill="#CF7CA8"/>
      <polygon id="svg_67" points="1241.4,992.5 1245.5,976.9 1130.7,967.8 1143.4,992.5     " fill="#892679"/>
      <path id="svg_68" d="m1217.6,382.9l-66.5,161.7l99.8,1.5l-33.3,-163.2z" fill="#D04791"/>
      <path id="svg_69" d="m1161.6,627l80.1,25.7l9.1,-106.6l-89.2,80.9z" fill="#C72F8C"/>
      <path id="svg_70" d="m1130.7,967.8l114.9,9.1l11.3,-154.2l-126.2,145.1z" fill="#99247D"/>
      <path id="svg_71" d="m1108,821.2l22.7,146.6l126.2,-145.1l-148.9,-1.5z" fill="#A6227F"/>
      <path id="svg_72" d="m1075.5,192.8l97.5,116.4l14.4,-103.5l-111.9,-12.9z" fill="#D2749F"/>
      <path id="svg_73" d="m1191.1,63.9l-49.9,129.2l111.9,12.8l-62,-142z" fill="#D57CA6"/>
      <path id="svg_74" d="m1160.9,753.2l96,69.5l9.1,-103.5l-105.1,34z" fill="#B01F82"/>
      <path id="svg_75" d="m1241.8,652.7l-80.9,100.5l105.1,-34l-24.2,-66.5z" fill="#BA1C87"/>
      <path id="svg_76" d="m1151.1,544.6l10.6,82.4l89.2,-80.9l-99.8,-1.5z" fill="#CD378E"/>
      <polygon id="svg_77" points="1181,-12.9 1203.2,29.1 1231.2,-12.9     " fill="#D788B1"/>
      <path id="svg_78" d="m1160.9,753.2l-52.9,68l148.9,1.5l-96,-69.5z" fill="#B11F81"/>
      <polygon id="svg_79" points="1143.4,992.5 1130.7,967.8 1115.1,992.5     " fill="#8C257A"/>
      <path id="svg_80" d="m1161.6,627l-0.8,126.2l80.9,-100.5l-80.1,-25.7z" fill="#C4218A"/>
      <path id="svg_81" d="m1076.2,371.9l59.7,163.2l66.5,-161.7l-126.2,-1.5z" fill="#D75496"/>
      <path id="svg_82" d="m1066.4,100.9l59,81.6l49.9,-129.2l-108.9,47.6z" fill="#DC82AB"/>
      <polygon id="svg_83" points="1138.9,-12.9 1094.4,76.8 1203.2,29.1 1181,-12.9     " fill="#DC87B0"/>
      <path id="svg_84" d="m1108,821.2l-72.6,117.1l95.2,29.5l-22.6,-146.6z" fill="#A82282"/>
      <path id="svg_85" d="m1061.9,381.3l-89.9,139.8l149.6,23.4l-59.7,-163.2z" fill="#DE5097"/>
      <path id="svg_86" d="m803.4,519.6l-10.6,132.3l160.2,-108.8l-149.6,-23.5z" fill="#DB4196"/>
      <polygon id="svg_87" points="1044.6,-12.9 1094.4,76.8 1138.9,-12.9     " fill="#E38DB5"/>
      <path id="svg_88" d="m985.5,778.9l122.4,42.3l52.9,-68l-175.3,25.7z" fill="#BD1B86"/>
      <path id="svg_89" d="m990.8,653.4l-5.3,125.5l175.3,-25.7l-170,-99.8z" fill="#CA288D"/>
      <path id="svg_90" d="m990.8,653.4l170,99.8l0.8,-126.2l-170.8,26.4z" fill="#CC288D"/>
      <path id="svg_91" d="m1151.1,544.6l-160.3,108.8l170.8,-26.5l-10.5,-82.3z" fill="#D33891"/>
      <path id="svg_92" d="m1038.5,175.4l-49.9,127.7l108.8,-46.1l-58.9,-81.6z" fill="#E080A8"/>
      <path id="svg_93" d="m1014.6,312.2l-24.2,141.3l89.9,-139.8l-65.7,-1.5z" fill="#E25E9D"/>
      <path id="svg_94" d="m985.5,778.9l28.7,45.3l93.7,-3l-122.4,-42.3z" fill="#C01A87"/>
      <path id="svg_95" d="m1014.3,824.2l21.2,114.1l72.6,-117.1l-93.8,3z" fill="#B51E85"/>
      <polygon id="svg_96" points="1115.1,992.5 1130.7,967.8 1035.4,938.3 1062.1,992.5     " fill="#9D2481"/>
      <path id="svg_97" d="m918.3,133.1l74.8,112.6l49.9,-127.7l-124.7,15.1z" fill="#E687AE"/>
      <polygon id="svg_98" points="1011.8,-12.9 969.7,91.9 1094.4,76.8 1044.6,-12.9     " fill="#E98FB7"/>
      <polygon id="svg_99" points="1062.1,992.5 1035.4,938.3 1010.1,992.5     " fill="#9D2481"/>
      <path id="svg_100" d="m890.7,337.9l65.8,140.6l24.2,-141.3l-90,0.7z" fill="#E761A0"/>
      <polygon id="svg_101" points="919.9,-12.9 969.7,91.9 1011.8,-12.9     " fill="#F197BC"/>
      <path id="svg_102" d="m1014.3,824.2l-108.8,42.3l130,71.8l-21.2,-114.1z" fill="#BA1C87"/>
      <polygon id="svg_103" points="1010.1,992.5 1035.4,938.3 934.9,977.6 940.2,992.5     " fill="#A52386"/>
      <path id="svg_104" d="m903.5,621.7l78.6,76.3l5.3,-125.5l-83.9,49.2z" fill="#D43393"/>
      <path id="svg_105" d="m905.4,866.5l29.5,111.1l100.5,-39.3l-130,-71.8z" fill="#B51E87"/>
      <polygon id="svg_106" points="899.5,-12.9 884.3,64.7 969.7,91.9 919.9,-12.9     " fill="#F498BB"/>
      <path id="svg_107" d="m985.5,778.9l-80.1,87.7l108.8,-42.3l-28.7,-45.4z" fill="#C52189"/>
      <path id="svg_108" d="m906.9,702.5l-1.5,164l80.1,-87.7l-78.6,-76.3z" fill="#CD2B8E"/>
      <polygon id="svg_109" points="940.2,992.5 934.9,977.6 925.6,992.5     " fill="#A22486"/>
      <polygon id="svg_110" points="777.2,992.5 905.4,866.5 815.5,852.9 774.9,992.5     " fill="#C0318B"/>
      <path id="svg_111" d="m792.8,745.6l22.7,107.3l89.9,13.6l-112.6,-120.9z" fill="#CC348E"/>
      <path id="svg_112" d="m614.1,565.4l112.6,120.9l1.5,-164l-114.1,43.1z" fill="#D33691"/>
      <polygon id="svg_113" points="802.8,992.5 934.9,977.6 905.4,866.5 777.2,992.5     " fill="#B62C8A"/>
      <polygon id="svg_114" points="925.6,992.5 934.9,977.6 802.8,992.5     " fill="#AB2A88"/>
      <path id="svg_115" d="m689.3,763l-59,86.9l185.2,3l-126.2,-89.9z" fill="#D44492"/>
      <polygon id="svg_116" points="774.9,992.5 815.5,852.9 628.1,939.9 765.4,992.5     " fill="#C13C8D"/>
      <path id="svg_117" d="m630.3,849.9l-2.3,89.9l187.4,-86.9l-185.1,-3z" fill="#CA4490"/>
      <path id="svg_118" d="m768.6,716.1l-103.5,17.4l126.2,89.9l-22.7,-107.3z" fill="#D64192"/>
      <polygon id="svg_119" points="765.4,992.5 628.1,939.9 644.8,992.5     " fill="#B5418E"/>
      <polygon id="svg_120" points="644.8,992.5 628.1,939.9 575.2,986.7 581.5,992.5     " fill="#B74891"/>
      <path id="svg_121" d="m566.1,763.4l37,25.7l59,-86.9l-96,61.2z" fill="#D75094"/>
      <path id="svg_122" d="m484.8,811.8l96,153.4l18.2,-162.5l-114.2,9.1z" fill="#CC5998"/>
      <path id="svg_123" d="m593.3,824.2l-18.1,162.5l52.9,-46.9l-34.8,-115.6z" fill="#C55093"/>
      <path id="svg_124" d="m593.3,824.2l34.8,115.6l2.3,-89.9l-37.1,-25.7z" fill="#CD5195"/>
      <path id="svg_125" d="m479.2,833.3l-28.7,114.1l124.7,39.3l-96,-153.4z" fill="#C55B98"/>
      <polygon id="svg_126" points="570.6,992.5 575.2,986.7 450.5,947.4 486.8,992.5     " fill="#B95896"/>
      <polygon id="svg_127" points="486.8,992.5 450.5,947.4 447.9,992.5     " fill="#B25A94"/>
      <polygon id="svg_128" points="447.9,992.5 450.5,947.4 345.4,986 350.2,992.5     " fill="#B65F97"/>
      <path id="svg_129" d="m301.6,868.8l148.9,53.7l28.7,-114.1l-177.6,60.4z" fill="#CA669A"/>
      <path id="svg_130" d="m487.1,661.7l-135.3,167.8l177.6,-60.5l-42.3,-107.3z" fill="#D86B9D"/>
      <path id="svg_131" d="m301.2,596.7l14.4,186.7l135.3,-167.8l-149.7,-18.9z" fill="#DE74A3"/>
      <path id="svg_132" d="m301.6,893.8l43.8,92.2l105.1,-38.5l-148.9,-53.7z" fill="#C3689B"/>
      <path id="svg_133" d="m260,625.8l-76.3,64.2l90.7,122.4l-14.4,-186.6z" fill="#DC79A3"/>
      <path id="svg_134" d="m301.6,893.8l-102.8,51.4l146.6,40.8l-43.8,-92.2z" fill="#C46F9D"/>
      <polygon id="svg_135" points="343.1,992.5 345.4,986 198.8,945.1 242.2,992.5     " fill="#BA6C9A"/>
      <path id="svg_136" d="m210.9,761.5l-26.5,100.5l117.1,21.9l-90.6,-122.4z" fill="#D478A2"/>
      <polygon id="svg_137" points="242.2,992.5 198.8,945.1 194.6,992.5     " fill="#B36D9D"/>
      <path id="svg_138" d="m184.4,871.8l14.4,73.3l102.8,-51.4l-117.2,-21.9z" fill="#CB75A1"/>
      <polygon id="svg_139" points="194.6,992.5 198.8,945.1 164.8,992.5     " fill="#B472A1"/>
      <polygon id="svg_140" points="164.8,992.5 198.8,945.1 117.9,937.6 117.9,992.5     " fill="#BE76A3"/>
      <path id="svg_141" d="m86.9,718l85.4,105.8l26.5,-100.5l-111.9,-5.3z" fill="#DC7FA8"/>
      <path id="svg_142" d="m184.4,871.8l-66.5,65.8l80.9,7.6l-14.4,-73.4z" fill="#C978A3"/>
      <path id="svg_143" d="m76,759.6l-35.5,98.3l120.9,7.6l-85.4,-105.9z" fill="#D77FA9"/>
      <path id="svg_144" d="m63.5,864.3l54.4,73.3l66.5,-65.8l-120.9,-7.5z" fill="#CD7BA8"/>
      <polygon id="svg_145" points="117.9,992.5 117.9,937.6 29.4,975.8 29.4,992.5     " fill="#BA79A8"/>
      <polygon id="svg_146" points="29.4,911.2 117.9,937.6 63.5,864.3 29.4,873.5     " fill="#CC7FAB"/>
      <polygon id="svg_147" points="29.4,911.2 29.4,975.8 117.9,937.6     " fill="#C47FAC"/>
     </g>
     <g id="svg_148" opacity="0.81">
      <polygon id="svg_149" points="1412.4,91.6 1384.8,114.6 1412.4,128.9     " fill="#BC74A2"/>
      <polygon id="svg_150" points="1412.4,25.8 1371.6,39.2 1384.8,114.6 1412.4,91.6     " fill="#C178A7"/>
      <polygon id="svg_151" points="1412.4,282.8 1388.1,301.8 1412.4,324.7     " fill="#BC5F97"/>
      <polygon id="svg_152" points="1412.4,641.6 1378.2,648.8 1412.4,676.3     " fill="#AB2187"/>
      <polygon id="svg_153" points="1412.4,-12.9 1392.9,-12.9 1371.6,39.2 1412.4,25.8     " fill="#C07EAC"/>
      <polygon id="svg_154" points="1412.4,596.7 1378.2,648.8 1412.4,641.6     " fill="#B32E8B"/>
      <polygon id="svg_155" points="1412.4,401.9 1380.7,402.8 1412.4,471.9     " fill="#BB4992"/>
      <polygon id="svg_156" points="1412.4,676.3 1378.2,648.8 1402.2,802 1412.4,797     " fill="#A82285"/>
      <polygon id="svg_157" points="1412.4,128.9 1384.8,114.6 1412.4,146.1     " fill="#BD6E9D"/>
      <polygon id="svg_158" points="1412.4,324.7 1388.1,301.8 1380.7,402.8 1412.4,401.9     " fill="#C05896"/>
      <polygon id="svg_159" points="1412.4,146.1 1384.8,114.6 1388.1,301.8 1412.4,282.8     " fill="#C26B9C"/>
      <path id="svg_160" d="m1311.1,140.2l-15.7,113.5l89.5,-139.1l-73.8,25.6z" fill="#CC739E"/>
      <path id="svg_161" d="m1384.8,114.6l-89.5,139.1l92.8,48l-3.3,-187.1z" fill="#C86B9C"/>
      <path id="svg_162" d="m1378.2,648.8l-66.3,91.9l90.3,61.3l-24,-153.2z" fill="#B02085"/>
      <polygon id="svg_163" points="1317.6,992.5 1412.4,888.7 1412.4,867.8 1302,854.2 1291.8,992.5     " fill="#96247C"/>
      <polygon id="svg_164" points="1343.5,-12.9 1371.6,39.2 1392.9,-12.9     " fill="#C983AF"/>
      <polygon id="svg_165" points="1412.4,471.9 1380.7,402.8 1295.4,551.1 1412.4,546.6     " fill="#C24190"/>
      <polygon id="svg_166" points="1412.4,546.6 1295.4,551.1 1378.2,648.8 1412.4,596.7     " fill="#BC348D"/>
      <polygon id="svg_167" points="1412.4,992.5 1412.4,888.7 1317.6,992.5     " fill="#89267A"/>
      <polygon id="svg_168" points="1412.4,827.3 1402.2,802 1302,854.2 1412.4,867.8     " fill="#9D237E"/>
      <path id="svg_169" d="m1258.9,372.2l121.8,30.6l7.5,-101l-129.3,70.4z" fill="#C85B98"/>
      <path id="svg_170" d="m1311.9,740.7l-9.9,113.5l100.2,-52.2l-90.3,-61.3z" fill="#A72282"/>
      <polygon id="svg_171" points="1249.2,-12.9 1371.6,39.2 1343.5,-12.9     " fill="#D083AE"/>
      <path id="svg_172" d="m1285.4,667.8l26.5,72.9l66.3,-91.9l-92.8,19z" fill="#BB1F89"/>
      <path id="svg_173" d="m1295.4,551.1l-9.9,116.8l92.8,-19l-82.9,-97.8z" fill="#C12D8B"/>
      <path id="svg_174" d="m1258.9,372.2l36.4,178.9l85.3,-148.3l-121.7,-30.6z" fill="#C94E93"/>
      <path id="svg_175" d="m1371.6,39.2l-60.5,101l73.7,-25.7l-13.2,-75.3z" fill="#C977A3"/>
      <path id="svg_176" d="m1249,235.5l-36.4,118.4l129.2,-70.4l-92.8,-48z" fill="#CC639A"/>
      <polygon id="svg_177" points="1244.3,-12.9 1311.1,140.2 1371.6,39.2 1249.2,-12.9     " fill="#CF7CA8"/>
      <path id="svg_178" d="m1258.9,372.2l-72.9,177.2l109.3,1.7l-36.4,-178.9z" fill="#D04791"/>
      <path id="svg_179" d="m1197.6,639.7l87.8,28.2l9.9,-116.8l-97.7,88.6z" fill="#C72F8C"/>
      <polygon id="svg_180" points="1291.8,992.5 1302,854.2 1181.7,992.5     " fill="#99247D"/>
      <polygon id="svg_181" points="1181.7,992.5 1302,854.2 1138.8,852.5 1160.5,992.5     " fill="#A6227F"/>
      <path id="svg_182" d="m1103.2,163.8l106.8,127.5l15.7,-113.5l-122.5,-14z" fill="#D2749F"/>
      <path id="svg_183" d="m1229.9,22.6l-54.7,141.6l122.6,14.1l-67.9,-155.7z" fill="#D57CA6"/>
      <path id="svg_184" d="m1196.8,778l105.2,76.2l9.9,-113.5l-115.1,37.3z" fill="#B01F82"/>
      <path id="svg_185" d="m1285.4,667.8l-88.6,110.2l115.1,-37.3l-26.5,-72.9z" fill="#BA1C87"/>
      <path id="svg_186" d="m1186,549.4l11.6,90.3l97.7,-88.6l-109.3,-1.7z" fill="#CD378E"/>
      <path id="svg_187" d="m1196.8,778l-58,74.5l163.2,1.7l-105.2,-76.2z" fill="#B11F81"/>
      <path id="svg_188" d="m1197.6,639.7l-0.8,138.3l88.6,-110.2l-87.8,-28.1z" fill="#C4218A"/>
      <path id="svg_189" d="m1104.1,360.1l65.4,178.9l72.9,-177.2l-138.3,-1.7z" fill="#D75496"/>
      <path id="svg_190" d="m1093.3,63.2l64.6,89.5l54.7,-141.7l-119.3,52.2z" fill="#DC82AB"/>
      <polygon id="svg_191" points="1148.6,-12.9 1123.9,36.7 1237.3,-12.9     " fill="#DC87B0"/>
      <polygon id="svg_192" points="1160.5,992.5 1138.8,852.5 1059.3,980.9 1096.9,992.5     " fill="#A82282"/>
      <path id="svg_193" d="m1088.3,370.5l-98.6,153.2l164,25.7l-65.4,-178.9z" fill="#DE5097"/>
      <path id="svg_194" d="m805.1,522.1l-11.6,144.9l175.5,-119.3l-163.9,-25.6z" fill="#DB4196"/>
      <polygon id="svg_195" points="1096.4,-12.9 1123.9,36.7 1148.6,-12.9     " fill="#E38DB5"/>
      <path id="svg_196" d="m1004.7,806.2l134.2,46.4l58,-74.5l-192.2,28.1z" fill="#BD1B86"/>
      <path id="svg_197" d="m1010.5,668.7l-5.8,137.5l192.2,-28.2l-186.4,-109.3z" fill="#CA288D"/>
      <path id="svg_198" d="m1010.5,668.7l186.3,109.3l0.8,-138.3l-187.1,29z" fill="#CC288D"/>
      <path id="svg_199" d="m1186,549.4l-175.6,119.3l187.2,-29l-11.6,-90.3z" fill="#D33891"/>
      <path id="svg_200" d="m1062.6,144.8l-54.7,140l119.3,-50.5l-64.6,-89.5z" fill="#E080A8"/>
      <path id="svg_201" d="m1036.6,294.7l-26.6,154.9l98.6,-153.2l-72,-1.7z" fill="#E25E9D"/>
      <path id="svg_202" d="m1004.7,806.2l31.5,49.7l102.7,-3.3l-134.2,-46.4z" fill="#C01A87"/>
      <path id="svg_203" d="m1036.1,855.8l23.2,125.1l79.5,-128.4l-102.7,3.3z" fill="#B51E85"/>
      <path id="svg_204" d="m930.9,98.4l82,123.4l54.7,-140l-136.7,16.6z" fill="#E687AE"/>
      <polygon id="svg_205" points="1013.9,-12.9 987.3,53.3 1123.9,36.7 1096.4,-12.9     " fill="#E98FB7"/>
      <path id="svg_206" d="m900.7,322.9l72.1,154.1l26.5,-155l-98.6,0.9z" fill="#E761A0"/>
      <polygon id="svg_207" points="955.8,-12.9 987.3,53.3 1013.9,-12.9     " fill="#F197BC"/>
      <path id="svg_208" d="m1036.1,855.8l-119.3,46.4l142.5,78.7l-23.2,-125.1z" fill="#BA1C87"/>
      <path id="svg_209" d="m914.8,633.9l86.1,83.7l5.8,-137.5l-91.9,53.8z" fill="#D43393"/>
      <polygon id="svg_210" points="1029.6,992.5 1059.3,980.9 916.9,902.2 940.8,992.5     " fill="#B51E87"/>
      <polygon id="svg_211" points="900.8,-12.9 893.7,23.5 987.3,53.3 955.8,-12.9     " fill="#F498BB"/>
      <path id="svg_212" d="m1004.7,806.2l-87.8,96.1l119.3,-46.4l-31.5,-49.7z" fill="#C52189"/>
      <path id="svg_213" d="m918.5,722.5l-1.7,179.7l87.8,-96.1l-86.1,-83.6z" fill="#CD2B8E"/>
      <polygon id="svg_214" points="825,992.5 916.9,902.2 818.3,887.3 787.7,992.5     " fill="#C0318B"/>
      <path id="svg_215" d="m793.5,769.7l24.8,117.6l98.6,14.9l-123.4,-132.5z" fill="#CC348E"/>
      <path id="svg_216" d="m597.6,572.2l123.4,132.5l1.7,-179.7l-125.1,47.2z" fill="#D33691"/>
      <polygon id="svg_217" points="940.8,992.5 916.9,902.2 825,992.5     " fill="#B62C8A"/>
      <path id="svg_218" d="m680,788.8l-64.6,95.2l202.9,3.3l-138.3,-98.5z" fill="#D44492"/>
      <polygon id="svg_219" points="787.7,992.5 818.3,887.3 612.9,982.6 638.9,992.5     " fill="#C13C8D"/>
      <path id="svg_220" d="m615.4,884l-2.5,98.6l205.4,-95.2l-202.9,-3.4z" fill="#CA4490"/>
      <path id="svg_221" d="m767,737.4l-113.5,19l138.3,98.6l-24.8,-117.6z" fill="#D64192"/>
      <path id="svg_222" d="m545,789.2l40.6,28.2l64.6,-95.2l-105.2,67z" fill="#D75094"/>
      <polygon id="svg_223" points="563.1,992.5 581,832.2 456,842.2 550,992.5     " fill="#CC5998"/>
      <polygon id="svg_224" points="601.7,992.5 612.9,982.6 574.8,855.8 559.5,992.5     " fill="#C55093"/>
      <path id="svg_225" d="m574.8,855.8l38.1,126.7l2.5,-98.6l-40.6,-28.1z" fill="#CD5195"/>
      <polygon id="svg_226" points="529,992.5 449.7,865.8 418.3,990.9 423.6,992.5     " fill="#C55B98"/>
      <path id="svg_227" d="m255.1,904.7l163.2,58.8l31.5,-125.1l-194.7,66.3z" fill="#CA669A"/>
      <path id="svg_228" d="m458.4,677.8l-148.2,183.8l194.6,-66.3l-46.4,-117.5z" fill="#D86B9D"/>
      <path id="svg_229" d="m254.7,606.5l15.7,204.6l148.3,-183.9l-164,-20.7z" fill="#DE74A3"/>
      <polygon id="svg_230" points="413.7,992.5 418.3,990.9 255.1,932 283.9,992.5     " fill="#C3689B"/>
      <path id="svg_231" d="m209.5,638.4l-83.7,70.4l99.5,134.2l-15.8,-204.6z" fill="#DC79A3"/>
      <polygon id="svg_232" points="283.9,992.5 255.1,932 142.5,988.4 157.4,992.5     " fill="#C46F9D"/>
      <path id="svg_233" d="m155.7,787.1l-29,110.2l128.4,24l-99.4,-134.2z" fill="#D478A2"/>
      <path id="svg_234" d="m126.7,908l15.7,80.3l112.7,-56.3l-128.4,-24z" fill="#CB75A1"/>
      <path id="svg_235" d="m19.9,739.5l93.6,116l29,-110.2l-122.6,-5.8z" fill="#DC7FA8"/>
      <path id="svg_236" d="m126.7,908l-72.9,72.1l88.6,8.3l-15.7,-80.4z" fill="#C978A3"/>
      <polygon id="svg_237" points="-16.1,893.6 101.5,901 7.9,785 -16.1,851.2     " fill="#D77FA9"/>
      <path id="svg_238" d="m-5.8,899.7l59.6,80.3l72.9,-72.1l-132.5,-8.2z" fill="#CD7BA8"/>
      <polygon id="svg_239" points="-16.1,959.3 53.8,980.1 -5.8,899.7 -16.1,902.5     " fill="#CC7FAB"/>
      <polygon id="svg_240" points="-16.1,959.3 -16.1,992.5 25,992.5 53.8,980.1     " fill="#C47FAC"/>
     </g>
     <g id="svg_241">
      <path id="svg_242" d="m1312.2,-13.9l-2,0l-104.7,0l-2.4,0l-9.5,0l-2.6,18.9l-0.5,0.7l0.3,0.2l-0.5,3.8l2,-3.1l118.2,61.2l-165.2,90.2l-0.4,-1.9l-0.9,2.2l-0.7,-0.2l0.2,0.8l-1.6,0.9l1.4,0.3l-94.1,228.9l-0.5,0l0.1,0.5l-227.6,154.6l-0.9,-0.5l0,0.8l-2,0.3l1.1,0.6l-2.4,1.7l3.2,-0.5l-7.4,176.3l-1.4,-0.5l0.7,1.1l-2.5,0.4l2.4,0.8l-112.7,123.4l-1.4,-0.8l0.2,0.8l-123.4,-18.7l0.9,-0.4l-3.1,0l0.2,-0.9l-1.5,0.7l-180.2,-128.5l-84.1,123.9l-51.7,-35.9l-1.3,-4.4l-0.4,3.2l-1,-0.7l0.8,2.5l-22.8,204.6l27,0l3,0l55,0l2.1,0l87.2,0l5.6,0l112.1,0l2.1,0l26.6,0l2.9,0l182.7,0l2.1,0l36.1,0l5.5,0l83.8,0l2.2,0l38,0l2.2,0l112.8,0l0.2,0l2.4,0l1.6,0l160.7,0l2,0l8.6,0l2.7,0l72.8,0l0.1,0l117.7,0l2,0l23.1,0l0,-9.3l0,-2.2l0,-96.5l0,0.1l0,-79l0,0l0,-20.1l0,-2.6l0,-104.1l0,-2.2l0,-65.2l0,-2.6l0,-113.2l0,-2l0,-89.5l0,-2.5l0,-18.1l0,-2l0,-81.9l0,0.1l0,-103.5l0,0l0,-32.7l0,-2.8l0,-171.3l0,-2.5l0,-1.7l-101.2,0zm-116.8,2l6.5,0l-8.3,12.9l1.8,-12.9zm216,0l0,1.3l-97.8,76.5l-1.4,-77.8l99.2,0zm-229.2,361.3l8.5,41.9l-139.5,-2.1l93,-226.2l38,186.4zm-326.9,390.3l127.5,44.1l-77.2,2.5l-50.1,1.6l-0.1,-0.3l-0.4,0.1l-39,-61.6l39.3,13.6zm442.1,-218.7l-83.6,116l-33.4,-92l29.4,-6l87.6,-18zm-231.2,166.8l126.1,-40.8l20.1,-6.5l-12.6,144.4l-133.4,-96.7l0.4,-0.1l-0.6,-0.3zm-0.6,-143.2l0.2,-35.6l111.6,35.8l-32.2,40l-80.4,99.9l0.8,-140.1zm80.4,42.3l32.7,-40.6l33.5,92.2l-20.8,6.7l-124.8,40.4l79.4,-98.7zm-23.9,144.2l75.4,54.6l-207.1,-2.1l73.6,-94.6l58.1,42.1zm92.3,-90.2l114.7,77.9l-127.4,66.2l12.7,-144.1zm-36.3,-98l-111.4,-35.7l124,-112.4l-5.4,63.4l-7.2,84.7zm-112.5,-37.3l-14.7,-114.4l138.6,2.1l-123.9,112.3zm-2,40.6l-0.8,139.6l-238.6,-140l239.6,-37.1l-0.2,37.5zm-178.3,402.7l-1.2,-6.2l-28.3,-152.8l53.4,-1.7l77.2,-2.5l-13.4,21.6l-87.7,141.6zm318.6,-162.8l126.6,-65.9l34.5,85.8l-161.1,-19.9zm94,-267.3l-117.8,24.2l7.3,-85.4l5.3,-62.8l52.6,62l52.6,62zm-104.2,-127.6l11.2,-19.5l97.9,-170.1l83.7,182.2l-192.8,7.4zm108.4,-193.1l-108.7,-27.4l-46.1,-11.6l164.3,-89.5l-9.5,128.5zm-156.3,-37.2l155.6,39.2l-99.8,173.5l-9.2,16l-14.5,-71l-32.1,-157.7zm-82.1,345.9l-238.2,36.9l223.4,-151.8l14.8,114.9zm-2.4,182.1l-0.5,0.6l0.1,0l-72,92.6l-0.1,-0.4l-1,1.6l-11.2,-3.9l-158.8,-54.9l196.5,-28.8l47,-6.8zm-207.4,101.3l28.5,153.9l1,5.6l-181.6,-100.3l31,-12l121.1,-47.2zm32.5,160.8l88.2,-142.4l13.2,-21.3l25.8,166.8l5.8,37.3l-2.1,0l-130.9,-40.4zm134.9,40.4l-31.8,-205.8l209,2.1l-34.6,39.8l-142.6,163.9zm308.3,-275l-1,-0.8l0.2,0.5l-113.9,-77.3l84.2,-116.8l20.6,131.2l9.9,63.2zm-30,-198.6l-55.5,-65.5l-50.1,-59.1l192.1,-7.4l-29.6,45.1l-56.9,86.9zm-95.3,-529.7l106,0l1.4,78.1l-118.3,-61.2l10.9,-16.9zm-382.1,558.9l234.4,137.5l4.2,2.5l-46.5,6.8l-199.5,29.2l7.4,-176zm-8.6,178.9l39.6,62.5l-123.7,48.1l-26.4,10.3l110.5,-120.9zm-508.6,226.3l3.2,-125.6l258.7,4.2l-258.2,119.7l-3.7,1.7zm86.5,-249.2l176.5,125.8l-206.6,-3.4l-52.4,-0.9l82.5,-121.5zm-85.7,122.8l-0.5,0.7l0.8,0l-3.1,121l-0.8,-2.8l-46.1,-153.4l49.7,34.5zm-46,165.7l-27,0l22.1,-197.7l47.6,158.2l0,0l0.4,1.1l-1.3,0.6l0.7,0.3l-10.9,9.6l-31.6,27.9zm3,0l40.6,-36l1.3,4.5l0,-0.3l10.1,31.8l-52,0zm54.2,0l-11.5,-36.1l94.1,36.1l-82.6,0zm88.3,0l-98.7,-37.9l263.1,-122l-46.5,159.9l-117.9,0zm119.9,0l9.8,-33.5l37,-127.1l125.4,19l-144.2,141.6l-28,0zm30.9,0l142.8,-140.4l29.8,112.5l7.4,27.9l-180,0zm182.2,0l-15.9,-60.1l-21.4,-80.2l181.4,100.2l-28.1,11l-74.3,29.1l-41.7,0zm47.2,0l97.4,-38.1l-6.2,13.3l-11.6,24.8l-79.6,0zm81.8,0l12.2,-26l5.4,-11.6l18.5,37.6l-36.1,0zm38.3,0l-18.9,-38.3l82.1,25.4l41.6,12.9l-104.8,0zm118.2,0l85,-97.8l90.6,-104.1l-14.8,201.9l-160.8,0zm162.7,0l9,-121.9l6,-81.8l163,20.1l-142.9,156.4l-24.8,27.2l-10.3,0zm37.6,-26.9l141.7,-155.1l11.2,82.2l11,80.7l-117.7,19.2l-70.9,0l24.7,-27zm58.7,26.9l15.3,-2.5l90.1,-14.7l0,2.4l0.1,14.8l-105.5,0zm128.6,0l-21.1,0l-0.1,-15.7l0,-1.2l21.2,8.8l0,8.1zm-21,-18.9l21,-72.8l0,81.5l-21,-8.7zm21,-80.1l-21.9,75.8l-10.8,-79.5l-11,-80.5l0.4,0l-0.1,-0.2l29.1,-0.9l14.3,-0.4l0,85.7zm0,-87.7l-8.4,0.3l-35.6,1.1l-0.2,-1.2l-0.4,0.4l-33.5,-83.3l70.9,57.3l7.1,5.8l0,19.6l0.1,0zm-78.6,-85.8l78.6,-38.3l0,101.8l-7.4,-6l-71.2,-57.5zm-1,-1.7l-9.9,-63.4l-20.7,-132.1l110.3,88.8l0,67.8l-29.8,14.6l-49.9,24.3zm79.6,-220.4l0,111.2l-109.4,-88.1l30,-6.3l79.4,-16.8zm0,-2.1l-70.5,14.9l-39,8.2l57.6,-87.8l28.5,-43.4l0.3,0.7l0.4,-1.1l22,16.5l0.8,0.6l0,91.4l-0.1,0zm0,-93.8l-1.9,-1.4l-18.6,-14l20.2,-1.1l0.3,0l0,16.5zm-21.9,-17.3l15.5,-49.7l6.4,-20.5l0,68.9l-21.9,1.3zm21.9,-76.8l-23.5,75.1l-83.4,-181.6l19,-0.6l87.8,-2.6l0,109.7l0.1,0zm0,-111.8l-88.9,2.7l-18.5,0.6l9.5,-128.3l97.9,92.4l0,32.6zm0,-35.4l-97.2,-91.7l97.2,-76.1l0,167.8z" fill="#FFFFFF"/>
      <path id="svg_243" d="m51.8,963.1l-0.8,0.3l-1.2,-1.5l-0.1,1.3l-66.8,-24.1l0,49.3l0,2.1l0,3.1l65.1,0l2,0l22.8,0l2.6,0l70.6,0l-94.3,-29.7l0.1,-0.8zm-66.9,-21.2l62.8,22.6l-62.8,23.1l0,-45.7zm0,49.6l0,-1.8l64.7,-23.7l-0.9,16.4l-0.5,9.1l-63.3,0zm65.2,0l0.5,-8.7l0.9,-15.7l12.6,15.6l7.1,8.8l-21.1,0zm23.6,0l-7.8,-9.7l-12.4,-15.4l79.5,25l-59.3,0l0,0.1z" fill="#FFFFFF"/>
     </g>
    </g>
   </g>
  </g>
  <path id="svg_244" d="m288.8,212.8c0,0 0,98 0,98c0,0 199,-1 199,-1c0,0 2,-98 1.2,-98.8c0.8,0.8 -200.2,1.8 -200.2,1.8z" stroke-width="0" stroke="#000" fill="#fff"/>
 </g>
</svg>